# xmcd
#
# Track frame offsets:
#	150
#	14272
#	27105
#	39545
#	52357
#	64600
#	84250
#	96885
#	108700
#	120879
#	136442
#	150295
#	164640
#	178270
#	190150
#	202407
#	225687
#	237607
#	248380
#	261730
#	273980
#	284660
#	297357
#	308960
#	318762
#
# Disc length: 4422 seconds
#
# Revision: 0
# Processed by: cddbd v1.5.2PL0 Copyright (c) Steve Scherf et al.
# Submitted via: EasyCDDAExtractor 11.1.0.1
#
DISCID=74114419
DTITLE=Various Artist - Best Ever Blues Volume 2
DYEAR=1996
DGENRE=Blues
TTITLE0=Howlin' Wolf - Smoke Stack Lightning
TTITLE1=Howlin' Wolf - Killing Floor
TTITLE2=Little Walter - Juke
TTITLE3=Big Mama Thornton - Hound Dog
TTITLE4=Muddy Waters - I Can't Be Satisfied
TTITLE5=Muddy Waters - Got My Mojo Working (live)
TTITLE6=Louis Jordan - Let The Good Times Roll
TTITLE7=Sonny Boy Williamson - Bring It On Home
TTITLE8=BB King - How Blue Can You Get?
TTITLE9=Eddie Boyd - 24 Hours
TTITLE10=Robert Nighthawk - Sweet Black Angel
TTITLE11=Lowell Fulson - Reconsider Baby
TTITLE12=Bo Diddley - I'm A Man
TTITLE13=Otis Rush - Homework
TTITLE14=Bobby 'Blue' Bland - I Pity The Fool
TTITLE15=John Lee Hooker - It Serves You Right To Suffer
TTITLE16=Little Junior Parker - Drivin' Wheel
TTITLE17=Etta James - Tell Mama
TTITLE18=Jay McShann with Walter Brown - Confessin' The Blues
TTITLE19=Memphis Slim - Mother Earth
TTITLE20=Big Walter Price - Pack Fair And Square
TTITLE21=Jimmy Rogers - That's All Right
TTITLE22=Clarence 'Gatemouth' Brown - Okie Dokie Stomp
TTITLE23=Willie Dixon - 29 Ways
TTITLE24=Willie Mabon - Seventh Son
EXTD=
EXTT0=
EXTT1=
EXTT2=
EXTT3=
EXTT4=
EXTT5=
EXTT6=
EXTT7=
EXTT8=
EXTT9=
EXTT10=
EXTT11=
EXTT12=
EXTT13=
EXTT14=
EXTT15=
EXTT16=
EXTT17=
EXTT18=
EXTT19=
EXTT20=
EXTT21=
EXTT22=
EXTT23=
EXTT24=
PLAYORDER=
